<mxfile host="app.diagrams.net" modified="2021-08-24T14:47:02.921Z" agent="5.0 (Windows NT 10.0; Win64; x64) AppleWebKit/537.36 (KHTML, like Gecko) Chrome/92.0.4515.159 Safari/537.36" etag="ScmvcogJgB9jPeF_GaUJ" version="14.9.8" type="github">
  <diagram id="5LNyBfdkvAKp6E-nRTi8" name="Page-1">
    <mxGraphModel dx="1490" dy="613" grid="1" gridSize="10" guides="1" tooltips="1" connect="1" arrows="1" fold="1" page="1" pageScale="1" pageWidth="850" pageHeight="1100" math="0" shadow="0">
      <root>
        <mxCell id="0" />
        <mxCell id="1" parent="0" />
        <mxCell id="VHlesIgi2WI2Tm7op6Ba-4" style="edgeStyle=orthogonalEdgeStyle;rounded=0;orthogonalLoop=1;jettySize=auto;html=1;entryX=0;entryY=0.5;entryDx=0;entryDy=0;" parent="1" source="VHlesIgi2WI2Tm7op6Ba-1" target="VHlesIgi2WI2Tm7op6Ba-3" edge="1">
          <mxGeometry relative="1" as="geometry" />
        </mxCell>
        <mxCell id="VHlesIgi2WI2Tm7op6Ba-5" style="edgeStyle=orthogonalEdgeStyle;rounded=0;orthogonalLoop=1;jettySize=auto;html=1;entryX=0;entryY=0.5;entryDx=0;entryDy=0;" parent="1" source="VHlesIgi2WI2Tm7op6Ba-1" target="VHlesIgi2WI2Tm7op6Ba-2" edge="1">
          <mxGeometry relative="1" as="geometry" />
        </mxCell>
        <mxCell id="VHlesIgi2WI2Tm7op6Ba-1" value="Case" style="rounded=1;whiteSpace=wrap;html=1;" parent="1" vertex="1">
          <mxGeometry x="370" y="670" width="80" height="60" as="geometry" />
        </mxCell>
        <mxCell id="rEZ0tzJYnLD1Po9i2CQ1-10" style="edgeStyle=orthogonalEdgeStyle;rounded=0;orthogonalLoop=1;jettySize=auto;html=1;entryX=0;entryY=0.5;entryDx=0;entryDy=0;fontSize=12;" parent="1" source="VHlesIgi2WI2Tm7op6Ba-2" target="rEZ0tzJYnLD1Po9i2CQ1-8" edge="1">
          <mxGeometry relative="1" as="geometry" />
        </mxCell>
        <mxCell id="rEZ0tzJYnLD1Po9i2CQ1-11" style="edgeStyle=orthogonalEdgeStyle;rounded=0;orthogonalLoop=1;jettySize=auto;html=1;entryX=0;entryY=0.5;entryDx=0;entryDy=0;fontSize=12;" parent="1" source="VHlesIgi2WI2Tm7op6Ba-2" target="rEZ0tzJYnLD1Po9i2CQ1-9" edge="1">
          <mxGeometry relative="1" as="geometry" />
        </mxCell>
        <mxCell id="Lb6dJ8j5PXhM6-a8x6zd-13" style="edgeStyle=orthogonalEdgeStyle;rounded=0;orthogonalLoop=1;jettySize=auto;html=1;entryX=0;entryY=0.5;entryDx=0;entryDy=0;" edge="1" parent="1" source="VHlesIgi2WI2Tm7op6Ba-2" target="rEZ0tzJYnLD1Po9i2CQ1-1">
          <mxGeometry relative="1" as="geometry" />
        </mxCell>
        <mxCell id="VHlesIgi2WI2Tm7op6Ba-2" value="Dispute Cases" style="rounded=1;whiteSpace=wrap;html=1;" parent="1" vertex="1">
          <mxGeometry x="490" y="675" width="120" height="50" as="geometry" />
        </mxCell>
        <mxCell id="rEZ0tzJYnLD1Po9i2CQ1-7" style="edgeStyle=orthogonalEdgeStyle;rounded=0;orthogonalLoop=1;jettySize=auto;html=1;entryX=0;entryY=0.5;entryDx=0;entryDy=0;fontSize=12;" parent="1" source="VHlesIgi2WI2Tm7op6Ba-3" target="rEZ0tzJYnLD1Po9i2CQ1-6" edge="1">
          <mxGeometry relative="1" as="geometry" />
        </mxCell>
        <mxCell id="Lb6dJ8j5PXhM6-a8x6zd-12" style="edgeStyle=orthogonalEdgeStyle;rounded=0;orthogonalLoop=1;jettySize=auto;html=1;entryX=0.003;entryY=0.605;entryDx=0;entryDy=0;entryPerimeter=0;" edge="1" parent="1" source="VHlesIgi2WI2Tm7op6Ba-3" target="rEZ0tzJYnLD1Po9i2CQ1-1">
          <mxGeometry relative="1" as="geometry" />
        </mxCell>
        <mxCell id="VHlesIgi2WI2Tm7op6Ba-3" value="Account receivable cases" style="rounded=1;whiteSpace=wrap;html=1;" parent="1" vertex="1">
          <mxGeometry x="500" y="807.5" width="120" height="60" as="geometry" />
        </mxCell>
        <mxCell id="rEZ0tzJYnLD1Po9i2CQ1-1" value="Pioneer entitlement Process&lt;br&gt;&lt;br&gt;It is available for only priority equals High and critical" style="rounded=1;whiteSpace=wrap;html=1;" parent="1" vertex="1">
          <mxGeometry x="700" y="795" width="280" height="85" as="geometry" />
        </mxCell>
        <mxCell id="rEZ0tzJYnLD1Po9i2CQ1-3" value="Entitlement Process" style="text;strokeColor=none;fillColor=none;html=1;fontSize=10;fontStyle=0;verticalAlign=middle;align=center;" parent="1" vertex="1">
          <mxGeometry x="800" y="760" width="100" height="40" as="geometry" />
        </mxCell>
        <mxCell id="rEZ0tzJYnLD1Po9i2CQ1-5" value="Lightning Component" style="text;strokeColor=none;fillColor=none;html=1;fontSize=12;fontStyle=0;verticalAlign=middle;align=center;" parent="1" vertex="1">
          <mxGeometry x="780" y="970" width="100" height="40" as="geometry" />
        </mxCell>
        <mxCell id="rEZ0tzJYnLD1Po9i2CQ1-6" value="PNR_ARCaseComponent&lt;br&gt;&lt;br&gt;Gives instructions to user who is working on the case" style="rounded=1;whiteSpace=wrap;html=1;fontSize=12;" parent="1" vertex="1">
          <mxGeometry x="702.5" y="1000" width="275" height="60" as="geometry" />
        </mxCell>
        <mxCell id="rEZ0tzJYnLD1Po9i2CQ1-8" value="Single Reference" style="rounded=1;whiteSpace=wrap;html=1;fontSize=12;" parent="1" vertex="1">
          <mxGeometry x="740" y="645" width="120" height="30" as="geometry" />
        </mxCell>
        <mxCell id="rEZ0tzJYnLD1Po9i2CQ1-9" value="Multiple Reference" style="rounded=1;whiteSpace=wrap;html=1;fontSize=12;" parent="1" vertex="1">
          <mxGeometry x="740" y="720" width="120" height="30" as="geometry" />
        </mxCell>
        <mxCell id="Lb6dJ8j5PXhM6-a8x6zd-7" style="edgeStyle=orthogonalEdgeStyle;rounded=0;orthogonalLoop=1;jettySize=auto;html=1;entryX=0;entryY=0.5;entryDx=0;entryDy=0;" edge="1" parent="1" source="Lb6dJ8j5PXhM6-a8x6zd-1" target="Lb6dJ8j5PXhM6-a8x6zd-3">
          <mxGeometry relative="1" as="geometry" />
        </mxCell>
        <mxCell id="Lb6dJ8j5PXhM6-a8x6zd-8" style="edgeStyle=orthogonalEdgeStyle;rounded=0;orthogonalLoop=1;jettySize=auto;html=1;" edge="1" parent="1" source="Lb6dJ8j5PXhM6-a8x6zd-1" target="Lb6dJ8j5PXhM6-a8x6zd-4">
          <mxGeometry relative="1" as="geometry" />
        </mxCell>
        <mxCell id="Lb6dJ8j5PXhM6-a8x6zd-9" style="edgeStyle=orthogonalEdgeStyle;rounded=0;orthogonalLoop=1;jettySize=auto;html=1;entryX=0;entryY=0.5;entryDx=0;entryDy=0;" edge="1" parent="1" source="Lb6dJ8j5PXhM6-a8x6zd-1" target="Lb6dJ8j5PXhM6-a8x6zd-5">
          <mxGeometry relative="1" as="geometry" />
        </mxCell>
        <mxCell id="Lb6dJ8j5PXhM6-a8x6zd-10" style="edgeStyle=orthogonalEdgeStyle;rounded=0;orthogonalLoop=1;jettySize=auto;html=1;entryX=0;entryY=0.5;entryDx=0;entryDy=0;" edge="1" parent="1" source="Lb6dJ8j5PXhM6-a8x6zd-1" target="Lb6dJ8j5PXhM6-a8x6zd-6">
          <mxGeometry relative="1" as="geometry" />
        </mxCell>
        <mxCell id="Lb6dJ8j5PXhM6-a8x6zd-1" value="&lt;font style=&quot;font-size: 18px&quot;&gt;Four ways of creating a case&lt;/font&gt;" style="rounded=1;whiteSpace=wrap;html=1;" vertex="1" parent="1">
          <mxGeometry x="10" y="660" width="120" height="90" as="geometry" />
        </mxCell>
        <mxCell id="Lb6dJ8j5PXhM6-a8x6zd-14" style="edgeStyle=orthogonalEdgeStyle;rounded=0;orthogonalLoop=1;jettySize=auto;html=1;entryX=0.5;entryY=0;entryDx=0;entryDy=0;" edge="1" parent="1" source="Lb6dJ8j5PXhM6-a8x6zd-3" target="VHlesIgi2WI2Tm7op6Ba-1">
          <mxGeometry relative="1" as="geometry" />
        </mxCell>
        <mxCell id="Lb6dJ8j5PXhM6-a8x6zd-3" value="Case object dropdown" style="rounded=1;whiteSpace=wrap;html=1;" vertex="1" parent="1">
          <mxGeometry x="200" y="580" width="120" height="30" as="geometry" />
        </mxCell>
        <mxCell id="Lb6dJ8j5PXhM6-a8x6zd-15" style="edgeStyle=orthogonalEdgeStyle;rounded=0;orthogonalLoop=1;jettySize=auto;html=1;entryX=0;entryY=0.5;entryDx=0;entryDy=0;" edge="1" parent="1" source="Lb6dJ8j5PXhM6-a8x6zd-4" target="VHlesIgi2WI2Tm7op6Ba-1">
          <mxGeometry relative="1" as="geometry" />
        </mxCell>
        <mxCell id="Lb6dJ8j5PXhM6-a8x6zd-4" value="Customer 360" style="rounded=1;whiteSpace=wrap;html=1;" vertex="1" parent="1">
          <mxGeometry x="200" y="650" width="120" height="30" as="geometry" />
        </mxCell>
        <mxCell id="Lb6dJ8j5PXhM6-a8x6zd-16" style="edgeStyle=orthogonalEdgeStyle;rounded=0;orthogonalLoop=1;jettySize=auto;html=1;entryX=0.5;entryY=1;entryDx=0;entryDy=0;" edge="1" parent="1" source="Lb6dJ8j5PXhM6-a8x6zd-5" target="VHlesIgi2WI2Tm7op6Ba-1">
          <mxGeometry relative="1" as="geometry">
            <Array as="points">
              <mxPoint x="410" y="745" />
            </Array>
          </mxGeometry>
        </mxCell>
        <mxCell id="Lb6dJ8j5PXhM6-a8x6zd-5" value="Invoice object related list" style="rounded=1;whiteSpace=wrap;html=1;" vertex="1" parent="1">
          <mxGeometry x="200" y="730" width="120" height="30" as="geometry" />
        </mxCell>
        <mxCell id="Lb6dJ8j5PXhM6-a8x6zd-17" style="edgeStyle=orthogonalEdgeStyle;rounded=0;orthogonalLoop=1;jettySize=auto;html=1;entryX=0.5;entryY=1;entryDx=0;entryDy=0;" edge="1" parent="1" source="Lb6dJ8j5PXhM6-a8x6zd-6" target="VHlesIgi2WI2Tm7op6Ba-1">
          <mxGeometry relative="1" as="geometry" />
        </mxCell>
        <mxCell id="Lb6dJ8j5PXhM6-a8x6zd-6" value="Customer and Document detail search" style="rounded=1;whiteSpace=wrap;html=1;" vertex="1" parent="1">
          <mxGeometry x="200" y="790" width="120" height="50" as="geometry" />
        </mxCell>
        <mxCell id="Lb6dJ8j5PXhM6-a8x6zd-18" value="&lt;div&gt;&lt;b&gt;&lt;font style=&quot;font-size: 14px&quot;&gt;Record Types&lt;/font&gt;&lt;/b&gt;&lt;/div&gt;" style="text;strokeColor=none;fillColor=none;html=1;whiteSpace=wrap;verticalAlign=middle;overflow=hidden;" vertex="1" parent="1">
          <mxGeometry x="500" y="620" width="100" height="80" as="geometry" />
        </mxCell>
        <mxCell id="Lb6dJ8j5PXhM6-a8x6zd-27" style="edgeStyle=orthogonalEdgeStyle;rounded=0;orthogonalLoop=1;jettySize=auto;html=1;entryX=0;entryY=0.5;entryDx=0;entryDy=0;" edge="1" parent="1" source="Lb6dJ8j5PXhM6-a8x6zd-19" target="Lb6dJ8j5PXhM6-a8x6zd-20">
          <mxGeometry relative="1" as="geometry" />
        </mxCell>
        <mxCell id="Lb6dJ8j5PXhM6-a8x6zd-28" style="edgeStyle=orthogonalEdgeStyle;rounded=0;orthogonalLoop=1;jettySize=auto;html=1;entryX=0;entryY=0.5;entryDx=0;entryDy=0;" edge="1" parent="1" source="Lb6dJ8j5PXhM6-a8x6zd-19" target="Lb6dJ8j5PXhM6-a8x6zd-21">
          <mxGeometry relative="1" as="geometry" />
        </mxCell>
        <mxCell id="Lb6dJ8j5PXhM6-a8x6zd-29" style="edgeStyle=orthogonalEdgeStyle;rounded=0;orthogonalLoop=1;jettySize=auto;html=1;entryX=0;entryY=0.5;entryDx=0;entryDy=0;" edge="1" parent="1" source="Lb6dJ8j5PXhM6-a8x6zd-19" target="Lb6dJ8j5PXhM6-a8x6zd-24">
          <mxGeometry relative="1" as="geometry" />
        </mxCell>
        <mxCell id="Lb6dJ8j5PXhM6-a8x6zd-19" value="SAP" style="rounded=1;whiteSpace=wrap;html=1;" vertex="1" parent="1">
          <mxGeometry x="100" y="450" width="130" height="30" as="geometry" />
        </mxCell>
        <mxCell id="Lb6dJ8j5PXhM6-a8x6zd-34" style="edgeStyle=orthogonalEdgeStyle;rounded=0;orthogonalLoop=1;jettySize=auto;html=1;" edge="1" parent="1" source="Lb6dJ8j5PXhM6-a8x6zd-20" target="Lb6dJ8j5PXhM6-a8x6zd-32">
          <mxGeometry relative="1" as="geometry" />
        </mxCell>
        <mxCell id="Lb6dJ8j5PXhM6-a8x6zd-20" value="Order" style="rounded=1;whiteSpace=wrap;html=1;" vertex="1" parent="1">
          <mxGeometry x="520" y="450" width="120" height="30" as="geometry" />
        </mxCell>
        <mxCell id="Lb6dJ8j5PXhM6-a8x6zd-33" style="edgeStyle=orthogonalEdgeStyle;rounded=0;orthogonalLoop=1;jettySize=auto;html=1;" edge="1" parent="1" source="Lb6dJ8j5PXhM6-a8x6zd-21" target="Lb6dJ8j5PXhM6-a8x6zd-32">
          <mxGeometry relative="1" as="geometry" />
        </mxCell>
        <mxCell id="Lb6dJ8j5PXhM6-a8x6zd-21" value="Invoice" style="rounded=1;whiteSpace=wrap;html=1;" vertex="1" parent="1">
          <mxGeometry x="520" y="370" width="120" height="30" as="geometry" />
        </mxCell>
        <mxCell id="Lb6dJ8j5PXhM6-a8x6zd-35" style="edgeStyle=orthogonalEdgeStyle;rounded=0;orthogonalLoop=1;jettySize=auto;html=1;" edge="1" parent="1" source="Lb6dJ8j5PXhM6-a8x6zd-24" target="Lb6dJ8j5PXhM6-a8x6zd-32">
          <mxGeometry relative="1" as="geometry" />
        </mxCell>
        <mxCell id="Lb6dJ8j5PXhM6-a8x6zd-24" value="customer" style="rounded=1;whiteSpace=wrap;html=1;" vertex="1" parent="1">
          <mxGeometry x="520" y="520" width="120" height="30" as="geometry" />
        </mxCell>
        <mxCell id="Lb6dJ8j5PXhM6-a8x6zd-26" value="In Salesforce creating a case and tracking the case" style="ellipse;shape=cloud;whiteSpace=wrap;html=1;" vertex="1" parent="1">
          <mxGeometry x="20" y="120" width="240" height="230" as="geometry" />
        </mxCell>
        <mxCell id="Lb6dJ8j5PXhM6-a8x6zd-30" value="From SAP these three will be flown" style="text;html=1;strokeColor=none;fillColor=none;align=center;verticalAlign=middle;whiteSpace=wrap;rounded=0;" vertex="1" parent="1">
          <mxGeometry x="250" y="440" width="120" height="20" as="geometry" />
        </mxCell>
        <mxCell id="Lb6dJ8j5PXhM6-a8x6zd-31" value="To Salesforce" style="text;html=1;strokeColor=none;fillColor=none;align=center;verticalAlign=middle;whiteSpace=wrap;rounded=0;" vertex="1" parent="1">
          <mxGeometry x="270" y="470" width="40" height="20" as="geometry" />
        </mxCell>
        <mxCell id="Lb6dJ8j5PXhM6-a8x6zd-32" value="Salesforce" style="ellipse;shape=cloud;whiteSpace=wrap;html=1;" vertex="1" parent="1">
          <mxGeometry x="760" y="425" width="120" height="80" as="geometry" />
        </mxCell>
        <mxCell id="Lb6dJ8j5PXhM6-a8x6zd-37" style="edgeStyle=orthogonalEdgeStyle;rounded=0;orthogonalLoop=1;jettySize=auto;html=1;entryX=0.5;entryY=0;entryDx=0;entryDy=0;" edge="1" parent="1" source="Lb6dJ8j5PXhM6-a8x6zd-36" target="Lb6dJ8j5PXhM6-a8x6zd-1">
          <mxGeometry relative="1" as="geometry" />
        </mxCell>
        <mxCell id="Lb6dJ8j5PXhM6-a8x6zd-36" value="Customer service rep will create the case in Salesforce" style="rounded=0;whiteSpace=wrap;html=1;" vertex="1" parent="1">
          <mxGeometry x="10" y="550" width="120" height="60" as="geometry" />
        </mxCell>
        <mxCell id="Lb6dJ8j5PXhM6-a8x6zd-41" style="edgeStyle=orthogonalEdgeStyle;rounded=0;orthogonalLoop=1;jettySize=auto;html=1;entryX=0.5;entryY=0;entryDx=0;entryDy=0;" edge="1" parent="1" source="Lb6dJ8j5PXhM6-a8x6zd-38" target="Lb6dJ8j5PXhM6-a8x6zd-39">
          <mxGeometry relative="1" as="geometry" />
        </mxCell>
        <mxCell id="Lb6dJ8j5PXhM6-a8x6zd-38" value="Type" style="rounded=1;whiteSpace=wrap;html=1;" vertex="1" parent="1">
          <mxGeometry x="480" y="60" width="120" height="60" as="geometry" />
        </mxCell>
        <mxCell id="Lb6dJ8j5PXhM6-a8x6zd-42" style="edgeStyle=orthogonalEdgeStyle;rounded=0;orthogonalLoop=1;jettySize=auto;html=1;entryX=0.5;entryY=0;entryDx=0;entryDy=0;" edge="1" parent="1" source="Lb6dJ8j5PXhM6-a8x6zd-39" target="Lb6dJ8j5PXhM6-a8x6zd-40">
          <mxGeometry relative="1" as="geometry" />
        </mxCell>
        <mxCell id="Lb6dJ8j5PXhM6-a8x6zd-39" value="Dispute Breakdown" style="rounded=1;whiteSpace=wrap;html=1;" vertex="1" parent="1">
          <mxGeometry x="670" y="130" width="120" height="60" as="geometry" />
        </mxCell>
        <mxCell id="Lb6dJ8j5PXhM6-a8x6zd-40" value="Dispute subtype" style="rounded=1;whiteSpace=wrap;html=1;" vertex="1" parent="1">
          <mxGeometry x="670" y="240" width="120" height="60" as="geometry" />
        </mxCell>
      </root>
    </mxGraphModel>
  </diagram>
</mxfile>
